HIERARCHY
ROOT hip
{
  OFFSET 0 0 0
  CHANNELS 6 Xposition Yposition Zposition Zrotation Yrotation Xrotation
  JOINT abdomen
  {
    OFFSET 0 20.6881 -0.73152
    CHANNELS 3 Zrotation Xrotation Yrotation
    JOINT chest
    {
      OFFSET 0 11.7043 -0.48768
      CHANNELS 3 Zrotation Xrotation Yrotation
      JOINT neck
      {
        OFFSET 0 22.1894 -2.19456
        CHANNELS 3 Zrotation Xrotation Yrotation
        JOINT head
        {
          OFFSET -0.24384 7.07133 1.2192
          CHANNELS 3 Zrotation Xrotation Yrotation
          JOINT leftEye
          {
            OFFSET 4.14528 8.04674 8.04672
            CHANNELS 3 Zrotation Xrotation Yrotation
            End Site
            {
              OFFSET 1 0 0
            }
          }
          JOINT rightEye
          {
            OFFSET -3.6576 8.04674 8.04672
            CHANNELS 3 Zrotation Xrotation Yrotation
            End Site
            {
              OFFSET 1 0 0
            }
          }
        }
      }
      JOINT rCollar
      {
        OFFSET -2.68224 19.2634 -4.8768
        CHANNELS 3 Zrotation Xrotation Yrotation
        JOINT rShldr
        {
          OFFSET -8.77824 -1.95073 1.46304
          CHANNELS 3 Zrotation Xrotation Yrotation
          JOINT rForeArm
          {
            OFFSET -28.1742 -1.7115 0.48768
            CHANNELS 3 Zrotation Xrotation Yrotation
            JOINT rHand
            {
              OFFSET -22.5879 0.773209 7.07136
              CHANNELS 3 Zrotation Xrotation Yrotation
              JOINT rThumb1
              {
                OFFSET -1.2192 -0.487915 3.41376
                CHANNELS 3 Zrotation Xrotation Yrotation
                JOINT rThumb2
                {
                  OFFSET -3.37035 -0.52449 3.41376
                  CHANNELS 3 Zrotation Xrotation Yrotation
                  End Site
                  {
                    OFFSET -1.78271 -1.18214 1.43049
                  }
                }
              }
              JOINT rIndex1
              {
                OFFSET -7.75947 0.938293 5.60832
                CHANNELS 3 Zrotation Xrotation Yrotation
                JOINT rIndex2
                {
                  OFFSET -2.54057 -0.884171 1.56538
                  CHANNELS 3 Zrotation Xrotation Yrotation
                  End Site
                  {
                    OFFSET -1.62519 -0.234802 1.16502
                  }
                }
              }
              JOINT rMid1
              {
                OFFSET -8.24714 1.18213 3.41376
                CHANNELS 3 Zrotation Xrotation Yrotation
                JOINT rMid2
                {
                  OFFSET -3.10165 -0.590103 1.0647
                  CHANNELS 3 Zrotation Xrotation Yrotation
                  End Site
                  {
                    OFFSET -2.48547 -0.328903 0.83742
                  }
                }
              }
              JOINT rRing1
              {
                OFFSET -8.82822 0.546677 1.51678
                CHANNELS 3 Zrotation Xrotation Yrotation
                JOINT rRing2
                {
                  OFFSET -2.60934 -0.819778 -0.0198488
                  CHANNELS 3 Zrotation Xrotation Yrotation
                  End Site
                  {
                    OFFSET -2.33842 -0.294052 0.168128
                  }
                }
              }
              JOINT rPinky1
              {
                OFFSET -8.27202 -0.0477905 -0.4584
                CHANNELS 3 Zrotation Xrotation Yrotation
                JOINT rPinky2
                {
                  OFFSET -1.82734 -0.647385 -0.700984
                  CHANNELS 3 Zrotation Xrotation Yrotation
                  End Site
                  {
                    OFFSET -1.69225 -0.51767 -0.607171
                  }
                }
              }
            }
          }
        }
      }
      JOINT lCollar
      {
        OFFSET 2.68224 19.2634 -4.8768
        CHANNELS 3 Zrotation Xrotation Yrotation
        JOINT lShldr
        {
          OFFSET 8.77824 -1.95073 1.46304
          CHANNELS 3 Zrotation Xrotation Yrotation
          JOINT lForeArm
          {
            OFFSET 28.1742 -1.7115 0.48768
            CHANNELS 3 Zrotation Xrotation Yrotation
            JOINT lHand
            {
              OFFSET 22.5879 0.773209 7.07136
              CHANNELS 3 Zrotation Xrotation Yrotation
              JOINT lThumb1
              {
                OFFSET 1.2192 -0.487915 3.41376
                CHANNELS 3 Zrotation Xrotation Yrotation
                JOINT lThumb2
                {
                  OFFSET 3.37035 -0.52449 3.41376
                  CHANNELS 3 Zrotation Xrotation Yrotation
                  End Site
                  {
                    OFFSET 1.78271 -1.18214 1.43049
                  }
                }
              }
              JOINT lIndex1
              {
                OFFSET 7.75947 0.938293 5.60832
                CHANNELS 3 Zrotation Xrotation Yrotation
                JOINT lIndex2
                {
                  OFFSET 2.54057 -0.884171 1.56538
                  CHANNELS 3 Zrotation Xrotation Yrotation
                  End Site
                  {
                    OFFSET 1.62519 -0.234802 1.16502
                  }
                }
              }
              JOINT lMid1
              {
                OFFSET 8.24714 1.18213 3.41376
                CHANNELS 3 Zrotation Xrotation Yrotation
                JOINT lMid2
                {
                  OFFSET 3.10165 -0.590103 1.0647
                  CHANNELS 3 Zrotation Xrotation Yrotation
                  End Site
                  {
                    OFFSET 2.48547 -0.328903 0.83742
                  }
                }
              }
              JOINT lRing1
              {
                OFFSET 8.82822 0.546677 1.51678
                CHANNELS 3 Zrotation Xrotation Yrotation
                JOINT lRing2
                {
                  OFFSET 2.60934 -0.819778 -0.0198488
                  CHANNELS 3 Zrotation Xrotation Yrotation
                  End Site
                  {
                    OFFSET 2.33842 -0.294052 0.168128
                  }
                }
              }
              JOINT lPinky1
              {
                OFFSET 8.27202 -0.0477905 -0.4584
                CHANNELS 3 Zrotation Xrotation Yrotation
                JOINT lPinky2
                {
                  OFFSET 1.82734 -0.647385 -0.700984
                  CHANNELS 3 Zrotation Xrotation Yrotation
                  End Site
                  {
                    OFFSET 1.69225 -0.51767 -0.607171
                  }
                }
              }
            }
          }
        }
      }
    }
  }
  JOINT rButtock
  {
    OFFSET -8.77824 4.35084 1.2192
    CHANNELS 3 Zrotation Xrotation Yrotation
    JOINT rThigh
    {
      OFFSET 0 -1.70687 -2.19456
      CHANNELS 3 Zrotation Xrotation Yrotation
      JOINT rShin
      {
        OFFSET 0 -36.8199 0.73152
        CHANNELS 3 Zrotation Xrotation Yrotation
        JOINT rFoot
        {
          OFFSET 0.73152 -45.1104 -5.12064
          CHANNELS 3 Zrotation Xrotation Yrotation
          End Site
          {
            OFFSET -1.1221 -3.69964 12.103
          }
        }
      }
    }
  }
  JOINT lButtock
  {
    OFFSET 8.77824 4.35084 1.2192
    CHANNELS 3 Zrotation Xrotation Yrotation
    JOINT lThigh
    {
      OFFSET 0 -1.70687 -2.19456
      CHANNELS 3 Zrotation Xrotation Yrotation
      JOINT lShin
      {
        OFFSET 0 -36.8199 0.73152
        CHANNELS 3 Zrotation Xrotation Yrotation
        JOINT lFoot
        {
          OFFSET -0.73152 -45.1104 -5.12064
          CHANNELS 3 Zrotation Xrotation Yrotation
          End Site
          {
            OFFSET 1.1221 -3.69964 12.103
          }
        }
      }
    }
  }
}
MOTION
Frames:	4
Frame Time:	0.00833333
93.0592 90.6005 -14.8917 -89.0889 78.0846 -83.6504 17.6583 -3.59316 6.53603 0.886519 -14.853 2.29505 -2.60048 2.80914 -3.5726 -8.91551 26.4856 -0.782987 -0.0 0.0 0.0 -0.0 0.0 0.0 -1.26337e-13 -7.86201e-14 -1.23147e-13 74.1952 45.4936 -23.7065 -27.5056 -28.2037 64.3883 -0.192827 -12.4142 -1.77281 -2.5024e-10 5.99662e-11 9.6526e-10 -4.42971e-10 1.0415e-10 1.66502e-09 -2.50238e-10 5.99626e-11 9.65254e-10 7.73091 5.47488 0.417314 -2.50238e-10 5.99638e-11 9.65257e-10 2.90554 0.965183 0.102902 -2.50234e-10 5.99634e-11 9.65259e-10 10.2786 0.731801 0.0259123 -2.50248e-10 5.9963e-11 9.65267e-10 2.22167 -0.733487 -0.20892 -1.26526e-13 -7.86201e-14 -1.23296e-13 -101.324 32.2131 51.8172 27.903 -30.0627 -67.3488 0.0497644 6.3534 -0.896627 8.96498e-10 -5.6195e-10 -5.12158e-10 1.54931e-09 -9.73978e-10 -8.92334e-10 8.9649e-10 -5.61945e-10 -5.12149e-10 -7.73091 5.47488 -0.417314 8.96498e-10 -5.61944e-10 -5.12158e-10 -2.90554 0.965183 -0.102902 8.96496e-10 -5.61947e-10 -5.12158e-10 -10.2786 0.731801 -0.0259123 8.96506e-10 -5.61944e-10 -5.12168e-10 -2.22167 -0.733487 0.20892 -2.03217e-16 0.0 -3.88251e-19 19.1307 -10.3817 -11.8515 -0.118853 37.3104 0.813856 5.39929 21.9296 -20.1743 2.03217e-16 0.0 3.88251e-19 4.2815 -23.3473 -25.6868 -0.0861045 4.88262 -0.948403 9.46555 -32.8806 16.7074
96.9642 90.2319 -14.6719 -83.8185 78.0281 -78.9765 17.2899 -3.47503 6.52676 1.05551 -14.8821 2.32509 -2.29331 3.35595 -3.50059 -8.47201 26.5688 -0.763676 -0.0 0.0 0.0 -0.0 0.0 0.0 6.5659e-15 2.47006e-12 -1.80488e-13 74.9584 46.2794 -24.928 -27.5096 -28.2431 64.5688 -0.208366 -12.8841 -1.84229 -6.69212e-10 7.42164e-11 5.73289e-10 -1.16113e-09 1.28618e-10 9.83166e-10 -6.6921e-10 7.42147e-11 5.73281e-10 7.73091 5.47488 0.417314 -6.6921e-10 7.42152e-11 5.73285e-10 2.90554 0.965183 0.102902 -6.69207e-10 7.42151e-11 5.73286e-10 10.2786 0.731801 0.0259123 -6.69218e-10 7.42146e-11 5.73293e-10 2.22167 -0.733487 -0.20892 6.34775e-15 2.47006e-12 -1.80646e-13 -101.156 32.2001 53.1607 27.9314 -30.2345 -67.6551 0.0431026 5.47701 -0.77312 7.60631e-10 -5.49468e-10 -7.64691e-10 1.31411e-09 -9.52245e-10 -1.32847e-09 7.60623e-10 -5.49465e-10 -7.64681e-10 -7.73091 5.47488 -0.417314 7.6063e-10 -5.49464e-10 -7.64691e-10 -2.90554 0.965183 -0.102902 7.60629e-10 -5.49467e-10 -7.64691e-10 -10.2786 0.731801 -0.0259123 7.6064e-10 -5.49464e-10 -7.64699e-10 -2.22167 -0.733487 0.20892 -2.03217e-16 0.0 -3.88251e-19 17.6927 -10.9537 -13.0355 -0.159495 41.702 0.966564 4.70494 19.4336 -23.262 2.03217e-16 0.0 3.88251e-19 4.22919 -21.67 -25.1315 -0.0770722 4.61379 -0.870937 9.05681 -28.6993 17.9749
101.061 89.5134 -14.5157 -78.6302 78.3234 -74.5281 16.4497 -3.13458 6.43884 1.38848 -14.9619 2.35863 -1.90114 4.02023 -3.35368 -8.01622 26.2882 -0.685707 -0.0 0.0 0.0 -0.0 0.0 0.0 1.86313e-13 5.92334e-12 -2.3934e-13 75.8964 46.9977 -26.3364 -27.4586 -28.0499 64.3692 -0.225338 -13.3739 -1.91501 -1.14031e-09 7.84939e-11 -5.3916e-11 -1.96616e-09 1.35769e-10 -1.06083e-10 -1.14031e-09 7.84961e-11 -5.39269e-11 7.73091 5.47488 0.417314 -1.14031e-09 7.84958e-11 -5.39229e-11 2.90554 0.965183 0.102902 -1.1403e-09 7.84958e-11 -5.39231e-11 10.2786 0.731801 0.0259123 -1.14031e-09 7.84953e-11 -5.3917e-11 2.22167 -0.733487 -0.20892 1.86073e-13 5.92334e-12 -2.39517e-13 -101.142 32.6017 54.5066 27.9515 -30.3666 -67.903 0.0405977 4.68936 -0.662735 4.43343e-10 -4.67542e-10 -1.03207e-09 7.65301e-10 -8.09964e-10 -1.78881e-09 4.43336e-10 -4.67542e-10 -1.03206e-09 -7.73091 5.47488 -0.417314 4.43341e-10 -4.67543e-10 -1.03207e-09 -2.90554 0.965183 -0.102902 4.43341e-10 -4.67544e-10 -1.03207e-09 -10.2786 0.731801 -0.0259123 4.43352e-10 -4.6754e-10 -1.03207e-09 -2.22167 -0.733487 0.20892 -2.03217e-16 0.0 -3.88251e-19 15.9349 -11.4023 -13.8861 -0.249861 46.6313 1.25247 2.02607 13.6243 -26.2868 2.03217e-16 0.0 3.88251e-19 3.57859 -20.0069 -23.6215 -0.0609844 5.80242 -0.778958 7.72606 -22.5968 19.2359
105.176 88.4018 -14.423 -73.8725 78.6227 -70.6839 15.045 -2.6577 6.25817 1.76598 -15.1077 2.36461 -1.441 4.6048 -3.1815 -7.59502 25.987 -0.582901 -0.0 0.0 0.0 -0.0 0.0 0.0 3.62401e-13 8.75768e-12 -2.59464e-13 77.0598 47.3499 -27.8212 -27.3625 -27.6635 63.7403 -0.236581 -13.6916 -1.96231 -1.49866e-09 8.46569e-11 -6.8295e-10 -2.5766e-09 1.46175e-10 -1.19741e-09 -1.49866e-09 8.4663e-11 -6.82963e-10 7.73091 5.47488 0.417314 -1.49866e-09 8.4662e-11 -6.8296e-10 2.90554 0.965183 0.102902 -1.49866e-09 8.46621e-11 -6.8296e-10 10.2786 0.731801 0.0259123 -1.49866e-09 8.46618e-11 -6.82956e-10 2.22167 -0.733487 -0.20892 3.62151e-13 8.75768e-12 -2.59659e-13 -101.07 33.3287 55.4992 27.954 -30.3808 -67.9266 0.0382913 4.43743 -0.627188 6.83291e-11 -3.54274e-10 -1.24938e-09 1.16446e-10 -6.13302e-10 -2.16178e-09 6.83238e-11 -3.54276e-10 -1.24936e-09 -7.73091 5.47488 -0.417314 6.83269e-11 -3.54278e-10 -1.24938e-09 -2.90554 0.965183 -0.102902 6.8326e-11 -3.54279e-10 -1.24938e-09 -10.2786 0.731801 -0.0259123 6.83375e-11 -3.54275e-10 -1.24938e-09 -2.22167 -0.733487 0.20892 -2.03217e-16 0.0 -3.88251e-19 13.8748 -12.1116 -14.3377 -0.415041 51.4543 1.61587 -1.59057 7.3198 -28.7604 2.03217e-16 0.0 3.88251e-19 2.21153 -18.6584 -21.7285 -0.0405014 8.23548 -0.690927 5.90821 -16.7457 19.9509
